<?xml version="1.0" encoding="utf-8"?>
<!-- Generator: Adobe Illustrator 25.4.1, SVG Export Plug-In . SVG Version: 6.00 Build 0)  -->
<svg version="1.1" id="Layer_1" xmlns="http://www.w3.org/2000/svg" xmlns:xlink="http://www.w3.org/1999/xlink" x="0px" y="0px"
	 viewBox="0 0 318.7 87" style="enable-background:new 0 0 318.7 87;" xml:space="preserve">
<style type="text/css">
	.st0{fill:url(#SVGID_1_);}
	.st1{fill:url(#SVGID_00000079485960169143032140000016698419112459419832_);}
	.st2{fill:url(#SVGID_00000131337358931305780440000017369548490300496825_);}
	.st3{fill:url(#SVGID_00000067955698225730908840000013326052519039930781_);}
	.st4{fill:url(#SVGID_00000013151427074320123240000010043657529998250378_);}
	.st5{fill:url(#SVGID_00000105399301693482673580000008698812933017373589_);}
	.st6{fill:url(#SVGID_00000070090272936183522330000007662976045503748772_);}
	.st7{fill:url(#SVGID_00000028321833103312105140000002718095904631659423_);}
	.st8{fill:url(#SVGID_00000126302174112203343530000003232618036998732174_);}
	.st9{fill:url(#SVGID_00000093174067989711071060000000488606333628125865_);}
	.st10{fill:#FFFFFF;}
</style>
<g>
	
		<linearGradient id="SVGID_1_" gradientUnits="userSpaceOnUse" x1="23.3" y1="89.4986" x2="23.3" y2="25.0472" gradientTransform="matrix(1 0 0 -1 0 89)">
		<stop  offset="0" style="stop-color:#EC008C"/>
		<stop  offset="0.1296" style="stop-color:#E7008C"/>
		<stop  offset="0.2809" style="stop-color:#DC088C"/>
		<stop  offset="0.4431" style="stop-color:#CC138C"/>
		<stop  offset="0.6131" style="stop-color:#B51E8E"/>
		<stop  offset="0.7891" style="stop-color:#98258F"/>
		<stop  offset="0.9677" style="stop-color:#762B90"/>
		<stop  offset="1" style="stop-color:#6F2C91"/>
	</linearGradient>
	<path class="st0" d="M37.3,8.3V0.8l0,0c0-0.5-0.4-0.8-0.9-0.8c-0.1,0-0.2,0-0.2,0l0,0l-0.1,0.1l0,0L9.8,13.3l0,0
		c-0.3,0.1-0.5,0.4-0.5,0.8c0,0.5,0.4,0.9,0.9,0.9c0.1,0,0.2,0,0.3-0.1l26-5.7l0,0C37,9.1,37.3,8.7,37.3,8.3L37.3,8.3L37.3,8.3z"/>
	
		<linearGradient id="SVGID_00000101070714160687688780000003944318277265965482_" gradientUnits="userSpaceOnUse" x1="-264.4852" y1="89.5089" x2="-264.4852" y2="25.0592" gradientTransform="matrix(-1 0 0 -1 -210.4852 89)">
		<stop  offset="0" style="stop-color:#EC008C"/>
		<stop  offset="0.1296" style="stop-color:#E7008C"/>
		<stop  offset="0.2809" style="stop-color:#DC088C"/>
		<stop  offset="0.4431" style="stop-color:#CC138C"/>
		<stop  offset="0.6131" style="stop-color:#B51E8E"/>
		<stop  offset="0.7891" style="stop-color:#98258F"/>
		<stop  offset="0.9677" style="stop-color:#762B90"/>
		<stop  offset="1" style="stop-color:#6F2C91"/>
	</linearGradient>
	<path style="fill:url(#SVGID_00000101070714160687688780000003944318277265965482_);" d="M40,8.3V0.8l0,0C40,0.3,40.4,0,40.9,0
		c0.1,0,0.2,0,0.2,0l0,0l0.1,0.1l0,0l26.3,13.2l0,0c0.3,0.1,0.5,0.4,0.5,0.8c0,0.5-0.4,0.9-0.9,0.9c-0.1,0-0.2,0-0.3-0.1l-26-5.7
		l0,0C40.3,9.1,40,8.7,40,8.3L40,8.3L40,8.3z"/>
	
		<linearGradient id="SVGID_00000016035180962738621180000005877979296899820983_" gradientUnits="userSpaceOnUse" x1="17.7" y1="88.3212" x2="17.7" y2="9.3374" gradientTransform="matrix(1 0 0 -1 0 89)">
		<stop  offset="0" style="stop-color:#EC008C"/>
		<stop  offset="0.1296" style="stop-color:#E7008C"/>
		<stop  offset="0.2809" style="stop-color:#DC088C"/>
		<stop  offset="0.4431" style="stop-color:#CC138C"/>
		<stop  offset="0.6131" style="stop-color:#B51E8E"/>
		<stop  offset="0.7891" style="stop-color:#98258F"/>
		<stop  offset="0.9677" style="stop-color:#762B90"/>
		<stop  offset="1" style="stop-color:#6F2C91"/>
	</linearGradient>
	<path style="fill:url(#SVGID_00000016035180962738621180000005877979296899820983_);" d="M35.2,13.3c0-0.5-0.4-0.9-0.9-0.9l0,0
		h-0.2H34L0.9,19.3l0,0c-0.4,0.1-0.7,0.4-0.7,0.8v0.1l0,0l8.8,36l0,0C9,56.7,9.4,57,9.9,57c0.3,0,0.5-0.2,0.7-0.4l0,0l24.5-43l0,0
		C35.1,13.6,35.2,13.4,35.2,13.3z"/>
	
		<linearGradient id="SVGID_00000075142061869886367090000002262125527437442742_" gradientUnits="userSpaceOnUse" x1="-282.5529" y1="88.3167" x2="-282.5529" y2="9.3365" gradientTransform="matrix(-1 0 0 -1 -222.9529 89)">
		<stop  offset="0" style="stop-color:#EC008C"/>
		<stop  offset="0.1296" style="stop-color:#E7008C"/>
		<stop  offset="0.2809" style="stop-color:#DC088C"/>
		<stop  offset="0.4431" style="stop-color:#CC138C"/>
		<stop  offset="0.6131" style="stop-color:#B51E8E"/>
		<stop  offset="0.7891" style="stop-color:#98258F"/>
		<stop  offset="0.9677" style="stop-color:#762B90"/>
		<stop  offset="1" style="stop-color:#6F2C91"/>
	</linearGradient>
	<path style="fill:url(#SVGID_00000075142061869886367090000002262125527437442742_);" d="M42.1,13.3c0-0.5,0.4-0.9,0.9-0.9l0,0h0.2
		h0.1l33.1,6.9l0,0c0.4,0.1,0.7,0.4,0.7,0.8v0.1l0,0l-8.8,36l0,0c0,0.5-0.4,0.8-0.9,0.8c-0.3,0-0.5-0.2-0.7-0.4l0,0l-24.5-43l0,0
		C42.2,13.6,42.1,13.4,42.1,13.3z"/>
	
		<linearGradient id="SVGID_00000132773089858264268500000013856361152428692656_" gradientUnits="userSpaceOnUse" x1="38.7" y1="87.8534" x2="38.7" y2="4.3251" gradientTransform="matrix(1 0 0 -1 0 89)">
		<stop  offset="0" style="stop-color:#EC008C"/>
		<stop  offset="0.1296" style="stop-color:#E7008C"/>
		<stop  offset="0.2809" style="stop-color:#DC088C"/>
		<stop  offset="0.4431" style="stop-color:#CC138C"/>
		<stop  offset="0.6131" style="stop-color:#B51E8E"/>
		<stop  offset="0.7891" style="stop-color:#98258F"/>
		<stop  offset="0.9677" style="stop-color:#762B90"/>
		<stop  offset="1" style="stop-color:#6F2C91"/>
	</linearGradient>
	<path style="fill:url(#SVGID_00000132773089858264268500000013856361152428692656_);" d="M65.2,59.5L65.2,59.5L39.4,13.9l0,0
		c-0.2-0.2-0.4-0.4-0.7-0.4s-0.6,0.2-0.7,0.4l0,0L12.2,59.5l0,0C12.1,59.6,12,59.8,12,60c0,0.5,0.4,0.9,0.9,0.9h51.6l0,0l0,0
		c0.5,0,0.9-0.4,0.9-0.9C65.3,59.8,65.3,59.6,65.2,59.5z"/>
	
		<linearGradient id="SVGID_00000095306880917739625540000002459363403237220783_" gradientUnits="userSpaceOnUse" x1="38.65" y1="82.6828" x2="38.65" y2="2.612" gradientTransform="matrix(1 0 0 -1 0 89)">
		<stop  offset="0" style="stop-color:#EC008C"/>
		<stop  offset="0.1296" style="stop-color:#E7008C"/>
		<stop  offset="0.2809" style="stop-color:#DC088C"/>
		<stop  offset="0.4431" style="stop-color:#CC138C"/>
		<stop  offset="0.6131" style="stop-color:#B51E8E"/>
		<stop  offset="0.7891" style="stop-color:#98258F"/>
		<stop  offset="0.9677" style="stop-color:#762B90"/>
		<stop  offset="1" style="stop-color:#6F2C91"/>
	</linearGradient>
	<path style="fill:url(#SVGID_00000095306880917739625540000002459363403237220783_);" d="M63.4,64.4c0-0.5-0.4-0.8-0.8-0.9l0,0
		H14.8l0,0l0,0c-0.5,0-0.9,0.4-0.9,0.9c0,0.3,0.1,0.5,0.3,0.7L38,86.8l0,0c0.2,0.1,0.3,0.2,0.5,0.2s0.4-0.1,0.5-0.2l0,0l23.8-21.7
		C63.3,64.9,63.4,64.7,63.4,64.4z"/>
	
		<linearGradient id="SVGID_00000039828642110230216490000003077164495460745878_" gradientUnits="userSpaceOnUse" x1="3.7" y1="69.0998" x2="3.7" y2="11.2151" gradientTransform="matrix(1 0 0 -1 0 89)">
		<stop  offset="0" style="stop-color:#EC008C"/>
		<stop  offset="0.1296" style="stop-color:#E7008C"/>
		<stop  offset="0.2809" style="stop-color:#DC088C"/>
		<stop  offset="0.4431" style="stop-color:#CC138C"/>
		<stop  offset="0.6131" style="stop-color:#B51E8E"/>
		<stop  offset="0.7891" style="stop-color:#98258F"/>
		<stop  offset="0.9677" style="stop-color:#762B90"/>
		<stop  offset="1" style="stop-color:#6F2C91"/>
	</linearGradient>
	<path style="fill:url(#SVGID_00000039828642110230216490000003077164495460745878_);" d="M7.4,61.1c0-0.1,0-0.1,0-0.2l0,0L1.6,34.5
		c-0.1-0.4-0.4-0.8-0.8-0.8S0,34,0,34.5l0,0v0.1l0,0l0,0l1.1,29.2l0,0c0,0.5,0.4,0.9,0.9,0.9c0.1,0,0.3,0,0.4-0.1l0,0L7,61.8l0,0
		h0.1l0,0C7.2,61.7,7.4,61.4,7.4,61.1z"/>
	
		<linearGradient id="SVGID_00000120545701140739183460000011589904006828340657_" gradientUnits="userSpaceOnUse" x1="-327.7207" y1="69.0998" x2="-327.7207" y2="11.2151" gradientTransform="matrix(-1 0 0 -1 -254.1707 89)">
		<stop  offset="0" style="stop-color:#EC008C"/>
		<stop  offset="0.1296" style="stop-color:#E7008C"/>
		<stop  offset="0.2809" style="stop-color:#DC088C"/>
		<stop  offset="0.4431" style="stop-color:#CC138C"/>
		<stop  offset="0.6131" style="stop-color:#B51E8E"/>
		<stop  offset="0.7891" style="stop-color:#98258F"/>
		<stop  offset="0.9677" style="stop-color:#762B90"/>
		<stop  offset="1" style="stop-color:#6F2C91"/>
	</linearGradient>
	<path style="fill:url(#SVGID_00000120545701140739183460000011589904006828340657_);" d="M69.9,61.1c0-0.1,0-0.1,0-0.2l0,0
		l5.7-26.5c0.1-0.4,0.4-0.8,0.8-0.8c0.4,0,0.8,0.3,0.8,0.8l0,0v0.1l0,0l0,0l-1.1,29.2l0,0c0,0.5-0.4,0.9-0.9,0.9
		c-0.1,0-0.3,0-0.4-0.1l0,0l-4.6-2.8l0,0h-0.1l0,0C70.1,61.7,69.9,61.4,69.9,61.1z"/>
	
		<linearGradient id="SVGID_00000149346074281425627960000008563834690252986047_" gradientUnits="userSpaceOnUse" x1="15.05" y1="66.9288" x2="15.05" y2="8.1539" gradientTransform="matrix(1 0 0 -1 0 89)">
		<stop  offset="0" style="stop-color:#EC008C"/>
		<stop  offset="0.1296" style="stop-color:#E7008C"/>
		<stop  offset="0.2809" style="stop-color:#DC088C"/>
		<stop  offset="0.4431" style="stop-color:#CC138C"/>
		<stop  offset="0.6131" style="stop-color:#B51E8E"/>
		<stop  offset="0.7891" style="stop-color:#98258F"/>
		<stop  offset="0.9677" style="stop-color:#762B90"/>
		<stop  offset="1" style="stop-color:#6F2C91"/>
	</linearGradient>
	<path style="fill:url(#SVGID_00000149346074281425627960000008563834690252986047_);" d="M26.5,79.9L26.5,79.9L9.3,64.3l0,0
		c-0.1-0.1-0.3-0.2-0.5-0.2s-0.4,0.1-0.5,0.2l0,0L3.8,67l0,0c-0.3,0.2-0.4,0.4-0.4,0.7s0.2,0.6,0.4,0.7l0,0l21.6,12.8l0,0
		c0.1,0.1,0.3,0.1,0.4,0.1c0.5,0,0.9-0.4,0.9-0.9C26.7,80.2,26.6,80,26.5,79.9z"/>
	
		<linearGradient id="SVGID_00000058564012715872069820000001819371495406356358_" gradientUnits="userSpaceOnUse" x1="-291.1355" y1="66.9288" x2="-291.1355" y2="8.1539" gradientTransform="matrix(-1 0 0 -1 -228.8855 89)">
		<stop  offset="0" style="stop-color:#EC008C"/>
		<stop  offset="0.1296" style="stop-color:#E7008C"/>
		<stop  offset="0.2809" style="stop-color:#DC088C"/>
		<stop  offset="0.4431" style="stop-color:#CC138C"/>
		<stop  offset="0.6131" style="stop-color:#B51E8E"/>
		<stop  offset="0.7891" style="stop-color:#98258F"/>
		<stop  offset="0.9677" style="stop-color:#762B90"/>
		<stop  offset="1" style="stop-color:#6F2C91"/>
	</linearGradient>
	<path style="fill:url(#SVGID_00000058564012715872069820000001819371495406356358_);" d="M50.8,79.9L50.8,79.9L68,64.3l0,0
		c0.1-0.1,0.3-0.2,0.5-0.2s0.4,0.1,0.5,0.2l0,0l4.5,2.7l0,0c0.3,0.2,0.4,0.4,0.4,0.7s-0.2,0.6-0.4,0.7l0,0L51.9,81.2l0,0
		c-0.1,0.1-0.3,0.1-0.4,0.1c-0.5,0-0.9-0.4-0.9-0.9C50.6,80.2,50.7,80,50.8,79.9z"/>
	<g>
		<path class="st10" d="M33.3,47.4c2.6-1.4,4.8-2.6,4.8-5.7c0-2.4-1.7-4.9-5.4-4.9c-3.9,0-5.6,3-5.6,5.7c0,0.1,0.1,0.2,0.2,0.2h3
			c0.1,0,0.2-0.1,0.2-0.2c0-1.6,0.9-2.6,2.3-2.6c1.8,0,2,1.2,2,1.7c0,0.8-0.2,1.5-3.1,3c-2.5,1.3-4.8,3.1-4.8,6.7v1.3
			c0,0.1,0.1,0.2,0.2,0.2h10.8c0.1,0,0.2-0.1,0.2-0.2v-2.8c0-0.1-0.1-0.2-0.2-0.2h-7.2C30.9,48.8,32.2,48,33.3,47.4z"/>
		<path class="st10" d="M45.1,36.8c-2.9,0-6,2.1-6,8.2c0,6,3.1,8.2,6,8.2s6-2.1,6-8.2C51.1,39,48,36.8,45.1,36.8z M45.1,50
			c-2.5,0-2.6-3.8-2.6-5c0-1.5,0.3-5,2.6-5c2.4,0,2.6,3.5,2.6,5C47.8,46.1,47.6,50,45.1,50z"/>
	</g>
</g>
<g>
	<g>
		<path d="M131.9,71.2h-11.8V52.9c0-2.4-1.5-4.1-4.1-4.1h-14.8v22.4H89.3V29.6c0-5.9,2.1-11.5,5.9-15.5c4-4.2,9.7-6.5,15.9-6.5
			c12.3,0,21.9,9.1,21.9,20c0,6.5-2.5,11.4-6.4,14.6c3.3,2.1,5.3,5.4,5.3,10.2L131.9,71.2L131.9,71.2z M121.2,28.4
			c0-5.4-4-9.5-9.8-9.5c-6.6,0-10.1,4.9-10.1,10.6v8.4h10.2C117.7,38,121.2,34.3,121.2,28.4z"/>
		<path d="M181.2,48.2c0,13.8-10.5,24.1-23.3,24.1S134.7,62,134.7,48.2S145.1,24,157.9,24S181.2,34.4,181.2,48.2z M169.3,48.3
			c0-8-5.1-13.5-11.4-13.5c-6.3,0-11.4,5.5-11.4,13.5c0,7.8,5.1,13.2,11.4,13.2C164.2,61.5,169.3,56.1,169.3,48.3z"/>
		<path d="M184.9,4.6h11.9v47.2c0,6.5,3,8.9,8.8,8.5V71c-13.5,1.5-20.7-6.5-20.7-19.1V4.6z"/>
		<path d="M208.9,4.6h11.9v47.2c0,6.5,3,8.9,8.8,8.5V71c-13.6,1.5-20.7-6.5-20.7-19.1V4.6z"/>
		<path d="M253.5,8.8c13.1,0,19,8.3,19,16.6c0,9.9-6,14.9-19.3,22.1c-11,6-16.9,10.9-17.5,20.3c3.1,0,36.9,0,36.9,0v3.3h-40.3v-1.6
			c0-13.3,8.8-19.1,19.4-24.9c12.9-7,17.5-10.9,17.5-19.1c0-6.2-4.1-13.4-15.7-13.4c-10.3,0-16.7,7.1-16.8,17.3h-3.3
			C233.4,18.4,240.4,8.8,253.5,8.8z"/>
		<path d="M318.7,40.6c0,23.4-11.2,31.8-21.6,31.8c-10.5,0-21.7-8.4-21.7-31.8s11.2-31.8,21.7-31.8C307.5,8.8,318.7,17.2,318.7,40.6
			z M315.4,40.6c0-17.9-6.8-28.6-18.3-28.6s-18.3,10.7-18.3,28.6c0,17.8,6.8,28.5,18.3,28.5S315.4,58.4,315.4,40.6z"/>
	</g>
	<g>
		<path d="M315.4,14.4c-1.5,0-2.7-1.2-2.7-2.7s1.2-2.7,2.7-2.7s2.7,1.2,2.7,2.7S316.9,14.4,315.4,14.4z M315.4,9.3
			c-1.3,0-2.4,1.1-2.4,2.4c0,1.3,1.1,2.4,2.4,2.4s2.4-1.1,2.4-2.4C317.8,10.4,316.7,9.3,315.4,9.3z M316.7,13.2h-0.3l-0.7-1.2h-1
			v1.2h-0.3v-3h1.3c0.6,0,0.9,0.3,0.9,0.9c0,0.5-0.3,0.8-0.7,0.9L316.7,13.2z M315.7,10.5h-1.1v1.2h1.1c0.3,0,0.6-0.2,0.6-0.6
			C316.4,10.6,316,10.5,315.7,10.5z"/>
	</g>
</g>
</svg>
